<?xml version="1.0" encoding="UTF-8" standalone="no"?>
<!-- Created with Inkscape (http://www.inkscape.org/) -->

<svg
   width="297mm"
   height="210mm"
   viewBox="0 0 297 210"
   version="1.1"
   id="svg5"
   xml:space="preserve"
   inkscape:version="1.2.2 (b0a8486541, 2022-12-01)"
   sodipodi:docname="Logo.svg"
   xmlns:inkscape="http://www.inkscape.org/namespaces/inkscape"
   xmlns:sodipodi="http://sodipodi.sourceforge.net/DTD/sodipodi-0.dtd"
   xmlns="http://www.w3.org/2000/svg"
   xmlns:svg="http://www.w3.org/2000/svg"><sodipodi:namedview
     id="namedview7"
     pagecolor="#ffffff"
     bordercolor="#000000"
     borderopacity="0.25"
     inkscape:showpageshadow="2"
     inkscape:pageopacity="0.0"
     inkscape:pagecheckerboard="0"
     inkscape:deskcolor="#d1d1d1"
     inkscape:document-units="mm"
     showgrid="false"
     inkscape:zoom="0.72515432"
     inkscape:cx="556.43328"
     inkscape:cy="400.60438"
     inkscape:window-width="1920"
     inkscape:window-height="1001"
     inkscape:window-x="-9"
     inkscape:window-y="-9"
     inkscape:window-maximized="1"
     inkscape:current-layer="layer1" /><defs
     id="defs2" /><g
     inkscape:label="Ebene 1"
     inkscape:groupmode="layer"
     id="layer1"><path
       style="fill:#5a7b37;fill-opacity:1;stroke:none;stroke-width:0.169258"
       d="m 45.218289,84.121166 5.754777,-2.36961 v 0.169259 c -1.673622,0.791735 -3.972483,2.05369 -5.07774,3.554425 3.841991,-0.889266 7.621014,-3.71976 11.001776,-5.682953 1.414997,-0.821712 3.246373,-1.614839 4.231462,-2.949223 l -6.601073,2.877389 v -0.169259 c 2.187666,-0.829188 3.828279,-3.002047 6.262555,-3.215898 -1.154512,-0.970004 -3.114183,0.31334 -4.231453,0.890044 -2.449342,1.264306 -4.866346,2.696451 -7.27811,4.042072 -1.390452,0.775796 -3.07508,1.574671 -4.062194,2.853754 m 59.409641,-7.78587 v 0.16925 c 3.94813,1.199707 7.23664,3.062615 10.83253,5.149584 1.81835,1.055272 3.69068,2.649211 5.75478,3.144073 -1.30075,2.631546 3.27836,3.926414 5.24701,3.385167 v -0.16926 c -1.60812,-0.241054 -3.24857,-1.075903 -4.40071,-2.200361 1.76502,-0.291067 3.49196,0.694694 5.07774,1.354065 -1.13742,-2.387008 -3.99821,-1.687114 -5.92404,-2.717927 -5.27307,-2.822308 -10.26771,-8.385987 -16.58731,-8.114591 m 0.67703,1.184806 c 0.75507,1.244366 2.82002,1.953961 4.06221,2.660582 3.33557,1.897472 6.94618,4.777432 10.66326,5.802325 -1.10847,-1.539973 -3.12163,-2.481948 -4.73923,-3.410499 -3.23435,-1.856594 -6.46261,-3.791509 -9.98624,-5.052408 m -50.777469,2.200351 -0.169259,0.169259 0.169259,-0.169259 m -0.507778,0.338518 -0.169259,0.16926 0.169259,-0.16926 m -2.36961,1.24122 c 0.130838,0 0.02706,0.08425 -0.05633,0.05642 l 0.05633,-0.05642 m -0.338519,0.112846 v 0.338519 h -0.338518 l 0.338518,-0.338519 m -6.939582,3.385166 c 0.318204,2.000885 -3.331344,2.273596 -4.739231,2.53887 L 42.3409,85.305981 v -0.169259 c -1.206808,0.09603 -2.624521,0.337904 -3.522433,1.220856 -0.584112,0.57443 -1.016735,1.622678 -0.02197,2.038663 1.809881,0.75696 4.108234,-0.888843 5.744787,-1.397677 0.123565,0.71399 0.288928,1.288641 1.015556,1.523324 l -3.046648,2.031092 c 1.116426,-0.09749 2.501639,-0.474432 3.046648,-1.523324 h 0.338519 l 0.846286,5.924036 h 0.16926 c 0.345283,-1.450031 0.432796,-4.391913 -0.266244,-5.738963 -0.390143,-0.752066 -1.250478,-1.067651 -1.590014,-1.878299 -0.425514,-1.016496 0.697514,-2.030727 -0.682612,-2.538227 m 76.335465,2.031102 0.67703,1.692583 -0.67703,-1.692583 M 22.36843,100.2007 19.998815,99.354405 c 1.126651,-1.268413 2.833162,-2.062749 4.231455,-3.002978 2.741002,-1.842708 5.4339,-3.728415 8.293653,-5.388162 1.652976,-0.95919 4.056272,-1.7667 5.247004,-3.287673 -5.520865,0.938434 -10.647865,5.464505 -15.233239,8.410782 -1.200226,0.771305 -2.484422,1.518247 -3.551156,2.472525 -0.307118,0.274705 -0.862962,0.750986 -0.72236,1.229826 0.220188,0.749985 3.391325,0.321935 4.104258,0.411975 M 80.085474,88.521888 v 0.16925 c 2.748585,0.347663 6.539968,-0.190581 8.970526,1.322753 3.111637,1.937333 3.311027,6.461772 4.783061,9.509774 1.525867,3.159385 4.502265,4.557965 6.449589,7.278115 1.61032,2.24961 1.63081,5.639 1.63114,8.29365 h 0.16926 c 0.93718,-3.80408 0.98999,-9.5482 -3.215914,-11.50956 v -0.16926 l 5.754794,1.85524 10.66327,-0.009 3.04598,-0.0494 3.21658,3.44981 c -0.52436,-1.25961 -1.28941,-3.87516 -2.54616,-4.53967 -0.83934,-0.44379 -1.83069,0.0419 -2.70085,0.10765 -0.88471,0.0667 -1.81275,-0.13795 -2.70813,-0.13795 -3.08033,-1.6e-4 -6.63425,0.48662 -9.64772,-0.19024 -0.74983,-0.16841 -1.3072,-0.70073 -2.03111,-0.90824 -2.078154,-0.59562 -3.578804,0.51201 -5.077754,-1.60965 2.11573,-1.05244 5.458424,-2.412615 4.569974,-5.247003 l 1.68599,0.206155 1.41145,-0.805159 4.68846,0.583766 9.64772,0.184488 v -0.16925 c -3.222,-1.174653 -7.27269,-1.154511 -10.66327,-1.154511 -1.1342,0 -2.41888,0.394202 -3.54444,0.08511 -0.90452,-0.248299 -0.81989,-1.740648 -1.70512,-2.277204 -1.27468,-0.772486 -2.91192,-0.903496 -4.228914,-1.608965 -0.94971,-0.508623 -1.58561,-1.452911 -2.53887,-1.978038 -1.917877,-1.056337 -4.154625,-0.852293 -6.262557,-0.852293 v 0.169259 c 4.116187,0.60789 6.914537,2.077641 9.018077,5.754777 0.44734,0.781803 1.619804,2.262474 1.356104,3.213364 -0.434334,1.565809 -2.890434,2.227779 -3.603864,3.726224 -1.33747,-1.466285 -2.415475,-3.435099 -2.708126,-5.416264 1.59678,0.260658 1.479318,-1.578001 1.275361,-2.70813 -0.306018,-1.697496 -1.308533,-2.484548 -2.967944,-2.708138 0.901645,1.491341 3.717759,3.4373 1.523324,5.247008 -0.372708,-2.522951 -1.448851,-5.485137 -3.723672,-6.858125 -2.726424,-1.645631 -7.04894,-0.950026 -9.986245,-0.250362 m 40.283476,-0.677037 c -1.06294,0.912065 -0.46123,1.370857 -0.42281,2.53887 0.0505,1.538389 -0.2334,3.247054 -0.59274,4.739231 l 1.59661,-3.01313 1.45003,-0.03349 v -0.16926 c -1.1369,-0.361193 -1.69968,-0.471717 -2.03109,-1.692583 l 2.87739,0.507778 v -0.169259 c -1.74031,-0.649776 -2.43816,-0.917036 -2.87739,-2.708129 m -53.993386,3.554425 c -1.90178,0.08291 -5.535246,1.891292 -4.021067,4.378201 0.460548,0.756413 1.311076,0.478491 1.912278,0.970868 1.671597,1.368785 2.836434,3.145321 4.986177,3.960136 -0.477983,0.72256 -1.131655,1.77196 -1.959326,2.12385 -0.943961,0.40131 -2.270093,-0.0435 -3.287673,0.19177 -0.97984,0.2263 -1.710191,1.00353 -2.708139,1.15282 -1.140962,0.17078 -2.408368,-0.19566 -3.554416,-0.24594 -2.095249,-0.0917 -4.169167,0.16283 -6.262554,0.16266 -1.556497,-1.6e-4 -3.388717,-0.5313 -4.908491,-0.11526 -1.559547,0.42704 -2.921221,2.72149 -3.385166,4.17746 l 3.892944,-3.07982 3.554416,0.0325 10.663267,0.32328 2.877398,-1.52162 2.877389,-0.66282 c -3.316279,3.37907 -5.171011,8.93395 -3.215907,13.54066 h 0.169259 c -0.124409,-3.58844 0.0807,-7.58835 2.157698,-10.6626 1.385894,-2.05123 3.495527,-3.47181 4.813195,-5.58619 1.754025,-2.814261 2.282616,-6.012733 3.657835,-8.970687 0.586991,-1.262838 1.780432,-1.905849 2.404146,-3.046648 -1.791256,0.519379 -4.541363,1.021304 -5.705691,2.545635 -0.803634,1.052115 -1.310903,2.538035 -0.218342,3.54766 0.0067,-2.29294 1.527729,-3.751781 3.385163,-4.90849 l -4.908486,10.83248 c -1.117952,-0.787565 -3.299016,-2.497072 -3.630079,-3.895479 -0.229012,-0.967318 0.696661,-2.07765 1.130302,-2.874855 1.800909,-3.311365 3.789694,-4.367741 7.239007,-5.416258 -3.027859,-2.068544 -7.087011,2.247917 -8.251847,4.569971 -0.419756,0.836807 -1.00929,2.387728 -1.813768,2.912596 -0.592067,0.386247 -1.176687,-0.321928 -1.180411,-0.882348 -0.0048,-0.756077 0.568375,-1.513843 1.097811,-1.994705 0.660954,-0.600194 1.696815,-0.830886 2.193078,-1.558866 m 61.271486,-2.877389 -3.72368,1.015546 v 0.169259 c 1.00811,0.04328 3.97165,0.668229 3.72368,-1.184805 m 1.52333,0.16925 c 0.94971,1.295338 3.53902,2.081882 4.90849,2.990292 4.00109,2.654306 8.17042,6.703133 12.69437,8.350011 l -0.50778,0.67704 c 0.85204,-0.13591 1.19428,-0.715285 0.48255,-1.373025 -1.10949,-1.025365 -2.48894,-1.845254 -3.69846,-2.752311 -4.04832,-3.036322 -8.69107,-7.193351 -13.87917,-7.892007 m -87.845026,0.677068 c -0.565669,1.252177 -1.003196,2.578817 -2.033644,3.536654 -1.031629,0.958672 -2.444933,1.276205 -3.721139,1.786343 -2.647876,1.058372 -5.307938,2.084416 -7.955136,3.139909 -1.73598,0.692275 -4.214158,1.383684 -5.416263,2.877399 l 4.400713,-1.510465 11.509562,-3.905804 0.41705,7.616629 2.629598,5.58552 h 0.169259 l -2.36962,-9.986242 c 2.157027,1.130647 4.751245,0.470867 6.770333,-0.677037 v -0.16925 l -1.523324,0.16925 v -0.16925 l 1.354064,-0.846296 -1.184805,0.169259 v -0.169259 l 1.523324,-1.354065 -5.416268,1.861843 v 0.169259 l 2.36962,0.507768 v 0.169259 c -0.784173,0.06199 -3.575075,0.696669 -3.988066,-0.223081 -0.434313,-0.967644 0.110696,-1.891801 -0.581905,-2.992826 2.481487,-0.737116 3.053748,-3.331679 3.385156,-5.585517 h -0.338509 m 82.259506,0.846287 c -0.36679,2.920387 2.53667,3.337264 3.95996,5.012248 0.98915,1.163993 -0.74338,1.713905 -1.59035,1.751482 -0.45022,0.01977 -0.9035,0.0067 -1.35406,0.0067 -0.74897,-3.36e-4 -1.45934,-0.07561 -2.20037,-0.169259 1.33343,1.551257 3.71184,1.17211 5.24701,0.169259 0,0.574804 0.15978,1.458668 -0.174,1.960173 -1.51892,2.282455 -6.00307,-0.193455 -7.61188,-0.944627 1.41263,3.027362 5.09891,3.011782 7.61662,1.692577 l -2.32594,5.585535 -0.97679,2.31646 -1.77502,0.73019 v 0.16926 c 2.67429,0 2.71457,-0.88658 3.99501,-3.04665 2.09558,-3.53462 2.08273,-6.201465 1.75978,-10.155501 1.65348,0.880649 3.52328,1.368458 5.247,2.103377 3.50043,1.49251 7.14676,3.336584 11.00179,3.651404 -1.24135,-1.422455 -4.0424,-1.867935 -5.75478,-2.61064 -2.93562,-1.273499 -5.86006,-2.560873 -8.80143,-3.821005 -1.40518,-0.602047 -3.18916,-0.976616 -4.40004,-1.928696 -0.86897,-0.683121 -1.1865,-1.656359 -1.86251,-2.472189 m -81.413219,1.184815 v 0.338509 c 1.260468,0.08905 2.669372,0.222074 3.385166,-1.015546 l -3.385166,0.677037 m 56.870755,0.846286 c 0.90299,0.160969 5.233644,1.765703 3.621454,3.276332 -1.38691,1.299733 -3.171224,-2.464733 -3.621454,-3.276332 m -52.808561,6.262555 h 0.169259 c 0.420274,-0.789077 0.608149,-2.011968 1.376576,-2.537354 1.038739,-0.710036 3.006711,-0.341896 4.208951,-0.340034 3.325577,0.0058 6.508148,-0.08924 9.816971,-0.507778 v -0.338519 c -3.734,0 -7.620851,-0.559729 -11.340295,-0.121012 -1.005902,0.118815 -2.67344,-0.16046 -3.468102,0.578518 -0.754052,0.701238 -0.755405,2.313255 -0.76336,3.266179 m -2.031092,-0.677037 v 0.169259 h -1.184815 l 1.184815,-0.169259 m 78.535817,0.169259 c 0.74068,1.175497 3.67105,1.193777 4.40072,0 h -4.40072 m -78.874336,7.447372 c 0.0166,-1.85829 1.099327,-1.96831 2.031102,-3.21591 -1.436329,0.004 -3.811361,1.86048 -2.031102,3.21591 m 75.996946,-3.04665 v 0.16925 c 2.14163,0.72494 3.25602,0.63862 2.87739,3.2159 l -2.70813,-1.86182 c 0.39066,0.94107 1.58477,3.44372 2.84608,3.30629 1.64502,-0.17925 1.63724,-3.77937 0.53164,-4.53714 -1.05177,-0.72088 -2.38129,-0.38456 -3.54698,-0.29248 m 13.20214,11.67882 c 3.48503,-0.52199 7.41538,-2.63552 10.49402,-4.29476 2.53379,-1.36575 4.37617,-2.66886 7.2781,-2.64484 -1.26436,-1.05008 -2.81747,-0.88201 -4.23145,-0.25134 -3.08711,1.37658 -6.12631,3.06899 -9.13995,4.61059 -1.3732,0.70259 -3.39532,1.40738 -4.40072,2.58035 M 18.644749,106.46337 v 0.16926 c 4.163464,2.74571 9.058192,5.30422 13.709916,7.10885 -0.850693,0.36661 -2.000125,0.52216 -2.654189,1.23135 -1.022066,1.10796 0.519843,2.21593 1.46938,2.58238 1.797354,0.69344 4.508701,0.51995 5.585522,-1.27486 -1.661101,0.67686 -3.322539,0.8947 -5.077747,0.37491 -0.503373,-0.14912 -1.653483,-0.52995 -1.562252,-1.22526 0.10477,-0.79857 1.13149,-0.838 1.731511,-0.84206 1.739636,-0.012 3.382625,0.12017 5.077746,0.5076 -1.152649,-1.46764 -2.647368,-0.64842 -4.013959,-1.45087 -4.407957,-2.58847 -9.051251,-6.28389 -14.265928,-7.1813 m 9.816976,8.80143 -3.554422,-2.67936 -10.155492,-5.27578 0.846291,-0.33851 c -0.745109,-0.31195 -1.909872,-0.008 -1.227645,0.9844 0.803958,1.16975 2.703272,1.7178 3.935776,2.28381 3.216379,1.47677 6.660937,4.40257 10.155492,5.02544 m 123.389255,-7.78588 -14.72547,7.95514 v 0.16926 c 4.07895,-0.60239 8.08716,-3.49704 11.50956,-5.61802 0.77097,-0.47782 3.23977,-1.52011 3.21591,-2.50638 m -49.0849,5.24701 c -0.18906,2.39585 -0.73373,5.89645 0.33852,8.12439 h 0.16926 c 0.002,-2.34033 0.91349,-6.05588 -0.50778,-8.12439 m 28.60466,2.20035 c -0.93364,0.27082 -1.30414,1.19192 -0.46919,1.89502 1.73473,1.46036 4.74668,0.64978 5.71619,-1.21798 l -3.21591,1.01555 3.21591,-1.52333 c -1.45478,-1.10069 -2.72235,0.99017 -4.0622,1.27452 -1.16297,0.24678 -1.68835,-0.47985 -1.1848,-1.44378 m -68.211083,0.8463 -0.338519,4.40071 c 0.916029,-0.59393 0.782485,-3.47707 0.338519,-4.40071 m 52.131543,7.78587 -2.53887,-1.0137 -7.61663,-1.52517 v 0.16926 c 2.87266,1.89449 6.77339,2.3674 10.1555,2.36961 -0.94936,0.98474 -2.53413,0.37727 -3.72367,0.11001 -2.77364,-0.62304 -5.4926,-0.39961 -8.29367,-0.27927 v 0.16926 c 3.25722,0.91535 7.28641,1.00624 10.66328,1.01554 v 0.16926 c -0.79771,0.37728 -2.3686,1.07581 -2.58085,2.02907 -0.24593,1.10373 1.97659,1.73067 2.75011,1.86387 l -1.86184,-1.52333 v -0.3385 c 3.20828,-1.01572 6.39813,-3.88635 9.13994,-5.80217 2.54108,-1.77552 5.30354,-2.96033 7.95514,-4.52258 -1.00591,-0.35679 -2.57866,0.51319 -3.55443,0.8468 -3.93627,1.34594 -6.8861,4.34011 -10.49401,6.26204 m 21.32654,-7.2781 0.33852,2.53888 h 0.16925 l -0.16925,-2.53888 h -0.33852 m -103.755301,2.0311 v 0.16926 c 1.888752,0.0811 3.327616,0.36119 4.231456,-1.69258 l -4.231456,1.52332 m 5.416268,-1.52332 v 0.16925 c 5.31081,2.84236 10.448303,7.41977 16.418043,8.80142 l -1.861842,-1.18492 v -0.16926 c 2.541413,-0.20057 5.093995,-0.0791 7.616619,-0.52199 1.046358,-0.18382 2.306145,-0.36644 3.046648,-1.17059 -2.696278,0.34071 -5.425739,0.35104 -8.124397,0.7769 -1.710009,0.26979 -3.009915,0.99591 -4.400712,-0.43838 2.996375,-0.23646 9.693252,-0.0169 11.001785,-3.38516 -2.804096,1.02046 -5.398151,1.48558 -8.293656,2.18325 -0.883864,0.21293 -2.386029,1.22831 -3.264145,0.95005 -4.303728,-1.36319 -7.256261,-5.97023 -12.138343,-6.01069 m 91.230193,0 c 0.94733,3.18899 4.62853,2.28685 7.10884,2.87739 -1.05939,-1.21308 -2.80817,-0.90739 -4.23146,-1.31818 -1.08715,-0.31381 -1.90009,-1.05448 -2.87738,-1.55921 m -99.862367,0.33852 c 0.09792,0.77537 -0.207833,2.19764 0.174675,2.83879 0.448703,0.75236 1.475592,0.47749 1.853377,1.39588 0.624055,1.51705 0.533841,3.25245 2.203572,4.11245 1.314121,0.6767 4.550003,0.32007 5.454517,1.40214 1.142488,1.36676 -0.678045,2.38857 -1.731005,2.60658 v -0.16926 l 1.015547,-0.33852 v -0.16926 l -5.924036,0.50778 2.708132,0.67703 v 0.16926 l -4.908488,0.33852 0.169258,1.52332 -0.677033,-0.50778 c 0.07414,1.72712 0.08768,6.4413 2.200357,6.77033 l -0.846291,-2.70813 h 0.169258 l 0.338517,0.67703 c 0.49745,-1.69901 -0.466815,-4.0434 -1.184808,-5.58552 2.44832,0.66807 4.451999,0.72781 6.939587,0.10579 0.872186,-0.21817 2.03685,-0.44329 2.508577,-1.3065 0.455308,-0.83327 -0.01324,-1.83663 -0.138966,-2.69222 2.118605,0.16858 4.391069,0.62507 6.431814,1.2195 1.340871,0.39065 2.814085,1.15789 4.231453,1.13606 1.362538,-0.0212 3.955403,-1.49117 4.569972,-2.69408 -1.44698,0.39572 -2.849628,2.02568 -4.231453,2.144 -1.651283,0.1415 -3.934235,-1.58325 -5.585518,-1.99623 -2.496217,-0.62406 -5.082825,-1.01827 -7.616621,-1.45953 -1.246418,-0.21698 -2.866557,-0.28553 -3.861626,-1.14807 -1.194117,-1.03501 -1.617601,-2.96844 -2.400928,-4.31049 h -0.169258 v 0.67704 l -1.354066,-3.21591 h -0.338516 m 36.052003,1.69258 c 1.048047,2.01451 3.607903,3.288 5.754777,3.723 1.84339,0.37355 3.577941,-0.0815 5.416254,-0.16199 3.567121,-0.15606 7.098862,-0.15606 10.663267,0 2.533127,0.11103 5.263094,1.02114 7.785881,0.56617 2.074771,-0.37406 4.650031,-2.12791 5.924045,-3.78866 -2.059544,0.44125 -3.665804,2.12741 -5.754786,2.50992 -3.145157,0.57598 -6.976484,-0.41519 -10.155491,-0.63285 -2.742328,-0.18787 -5.720587,-0.18787 -8.462916,0 -1.677345,0.11476 -3.395477,0.49236 -5.077736,0.25084 -2.306652,-0.33124 -3.946939,-1.8351 -6.093295,-2.46643 m 71.257724,0.16926 c 0.56887,1.31733 -0.0301,1.51588 -1.18481,2.03109 v 0.16926 l 1.86184,-0.16926 -1.69258,7.10884 -7.44737,-0.33851 c 1.67803,1.95712 5.08503,1.41364 7.27811,0.84628 -1.71764,1.96662 -5.03374,1.28112 -7.27811,1.18482 v 0.16925 c 2.4314,1.13708 5.75173,1.57258 8.1244,0 -0.20498,1.58764 -0.19752,2.80173 0.67703,4.23146 v -2.20036 l 1.52333,-1.01555 c -0.90384,4.66069 -1.38674,9.34542 -2.0311,14.04844 -0.21885,1.59695 0.34596,4.23416 -1.86185,4.40071 v 0.16926 c 2.69138,0.95207 2.69561,-2.2618 2.97488,-4.06221 0.60951,-3.92983 0.97392,-7.89792 1.41737,-11.84807 0.19449,-1.73253 0.57532,-3.75262 -0.4993,-5.24701 h -0.16926 c -0.38219,1.25489 -0.5291,2.40483 -2.0311,2.70814 0.45852,-0.85814 0.47002,-1.91854 0.60527,-2.87739 0.32514,-2.30699 2.35066,-7.93516 -0.26675,-9.30919 M 28.9695,119.15763 c -1.071015,1.62978 0.492999,2.52498 2.031099,2.53886 v -0.16926 c -1.347499,-0.5648 -1.616721,-1.09204 -2.031099,-2.3696 m 105.27863,1.52332 c -0.0384,1.79971 -0.95124,3.12298 -2.70814,3.6492 -5.20368,1.55886 -10.64786,1.84982 -15.74101,3.96741 v 0.16925 c 3.81152,-0.48424 7.58361,-1.40026 11.3403,-2.18003 1.56564,-0.32498 3.2137,-0.33548 4.73923,-0.84799 1.87284,-0.62947 3.81847,-2.81087 2.36962,-4.75784 m -31.98982,12.35584 -0.8463,0.16925 0.77148,-9.13994 1.42889,-2.70812 c -3.38162,1.56868 -2.87739,5.5349 -2.87739,8.63216 0,0.91959 -0.30196,2.49825 0.12559,3.33117 0.36644,0.7136 1.13386,0.16723 1.39773,-0.28452 m -73.28881,-11.3403 0.677033,7.78588 h 0.338516 c 0.04757,-2.30039 0.663323,-5.88122 -1.015549,-7.78588 m 35.205712,0.50778 0.492703,8.4629 0.353584,3.21591 c 1.160778,-2.39856 0.737797,-6.05301 0.507778,-8.63216 -0.09902,-1.10984 -0.288247,-2.49251 -1.354065,-3.04665 m 29.281661,7.2781 v 0.16926 l -1.692574,0.33851 v 0.16926 c 1.098655,0.13879 3.288009,-0.10731 4.157988,0.63336 0.920429,0.7835 0.581229,3.81796 0.581229,4.95216 0.76049,-0.49102 0.61458,-1.55057 0.70632,-2.36962 0.20683,-1.8488 0.83631,-3.7147 -1.721862,-3.72367 v -0.16926 c 2.166842,-0.90841 4.151222,-4.09977 1.184802,-5.41627 0.23662,0.54214 0.70988,1.07649 0.70022,1.69258 -0.074,4.76108 -8.336293,1.39384 -4.421358,-1.38723 0.46191,-0.32802 0.994905,-0.46005 1.52079,-0.64386 -1.359486,-0.91281 -3.291905,0.45463 -3.633465,1.86184 -0.461066,1.89975 0.876417,3.39007 2.61791,3.89294 M 74.161442,124.9124 c 1.2107,1.36235 0.685324,3.27666 -1.354064,3.36011 -1.999446,0.0818 -3.36942,-2.11048 -3.385167,-3.86789 -1.451893,0.94125 0.276905,2.95203 0.529954,4.06219 0.527238,2.31326 -0.987968,5.54355 -1.037722,7.95514 l -2.877398,-1.86184 c 0.239673,0.85374 3.085923,4.97992 3.913421,3.19678 1.12489,-2.4236 0.487301,-6.33821 0.487301,-8.95156 2.724883,1.13268 5.403895,0.75032 8.293643,0.67957 4.13278,-0.10138 8.235592,-0.16417 12.355852,-0.34105 v -0.16926 c -5.133608,-1.22221 -11.567274,-1.09746 -16.587305,0.50778 1.184133,-1.04314 2.500113,-2.81155 1.280609,-4.39344 -0.961896,-1.24777 -4.281385,-2.23183 -5.128018,-0.33903 -0.50439,1.12761 0.928043,2.30361 1.984899,2.11946 1.022311,-0.17789 1.291778,-1.09003 1.523995,-1.95696 m -2.031102,-0.8463 c -0.259641,0.86509 -0.238818,1.29094 0.507778,1.86184 -1.340525,0.50084 -2.104221,-1.60118 -0.507778,-1.86184 m 0.507778,0.16926 0.846297,0.16926 c -0.329384,0.6811 -0.885399,1.15586 -1.354075,0.33852 h 0.16926 l 0.507778,0.33852 -0.16926,-0.8463 m 21.83431,0 c 0.216307,0.60138 0.430254,1.62319 -0.507778,1.01556 h 0.677037 l -0.338518,-0.50778 H 94.13391 93.626132 c -0.619146,3.00839 3.684924,0.33513 0.846296,-0.50778 m 1.354065,0 c 0.742033,2.84236 -3.26093,3.13889 -2.53887,0.16926 -2.025853,1.23711 -0.30145,3.59759 1.692573,3.14905 1.54516,-0.34766 2.47727,-2.46491 0.846297,-3.31831 m -22.342078,1.01556 -0.16926,0.16925 0.16926,-0.16925 m 52.808575,1.52332 c -0.61966,1.65466 -0.20362,2.95084 1.52332,3.55442 l -1.52332,-3.55442 m 4.06219,0.50777 v 0.16926 c 1.47881,0.41553 3.41699,0.61017 4.90849,0.16926 -1.24083,-0.94023 -3.46522,-0.40047 -4.90849,-0.33852 m -97.492741,0.50778 v 0.16926 c 1.636049,0.62998 4.597053,1.04397 5.754777,-0.67704 l -5.754777,0.50778 m -0.507774,21.66505 v -0.16926 c -1.726942,-0.35713 -1.485918,-3.15599 -1.76858,-4.56997 -0.462244,-2.31106 -1.010809,-4.61483 -1.399003,-6.93959 -0.400905,-2.40076 -0.406152,-4.38548 -1.571647,-6.60107 h 1.015549 c -0.80545,-1.0516 -0.600782,-1.35051 -0.169259,-2.53888 l -0.507775,0.16926 0.677034,-0.67703 c -1.564623,-0.1481 -2.222513,2.12487 -1.966848,3.38516 0.930039,4.58437 1.571426,9.52112 2.934988,14.04843 0.495943,1.64655 0.516423,4.2885 2.755541,3.89295 m -4.400715,-20.64951 -0.169257,0.16926 0.169257,-0.16926 m 9.47846,0.67704 v 0.16926 h -0.507774 l 0.507774,-0.16926 m 1.861843,1.01555 0.01487,4.73178 -1.538221,0.97865 -4.908488,1.0599 v 0.16926 l 2.369615,0.16925 0.06652,3.55442 -1.759101,2.70813 H 33.37019 c 0,-1.84457 0.03013,-3.91376 -0.846291,-5.58552 H 32.35466 c 0,3.15921 0.04942,6.39847 0.84629,9.47847 h 0.169259 c 0,-1.10916 -0.20548,-2.75891 0.432116,-3.72352 0.581063,-0.87896 1.959502,-1.26029 2.343211,-2.21627 0.482217,-1.2024 -0.312112,-3.09353 -0.744228,-4.21571 1.363036,0 3.812541,0.1718 4.835034,-0.91298 1.04821,-1.11202 -0.240354,-5.04711 -0.9421,-6.19586 m 52.808565,0.33851 c -0.761998,2.04414 0.227822,6.29928 -1.692583,7.2781 v 0.16926 l 1.736253,-0.41197 0.197356,-1.95764 -0.241026,-5.07775 m 1.015556,0 c -0.363909,1.15028 0.128467,1.49641 0.214781,2.55411 0.153522,1.87825 -0.582413,3.53936 2.154829,3.03141 v -0.16926 c -2.215589,-0.69514 -1.096284,-2.77633 -1.523324,-4.56997 H 93.79539 l -0.507768,0.8463 -0.169259,-1.69259 m 34.359427,0 c -0.31566,1.22035 -1.08764,3.33947 -0.79179,4.56929 0.35934,1.49439 3.2892,1.87623 4.51548,1.52401 l -3.33135,-1.87961 -0.39234,-4.21369 m -41.976049,0.16926 c 1.091209,1.54939 2.19138,2.67682 2.70813,4.56997 0.777067,-1.85608 -0.774358,-4.37059 -2.70813,-4.56997 m 4.062199,0.16926 c -0.486283,2.04142 -0.354092,4.24008 0.169259,6.26256 h 0.169259 v -6.26256 H 89.56394 m -48.746374,3.21591 v 0.16925 l 10.832526,-0.21699 7.278111,-1.24726 3.385156,-0.82276 2.200361,1.1022 -1.692583,-1.1848 v -0.16926 l 1.692583,-0.16926 c -1.48947,-1.1083 -4.243476,-0.26895 -5.924036,0.0441 -3.712515,0.69176 -7.406405,1.42922 -11.171045,1.78889 -2.139927,0.20446 -4.61415,-0.17722 -6.601073,0.70581 m 32.497579,-2.8774 v 1.35408 h 0.169259 l -0.169259,-1.35408 m 6.601069,0.16926 c -1.772976,1.85981 -1.230337,4.74821 -1.354064,7.10885 -2.136722,-1.20021 -1.354065,-4.73974 -1.354065,-6.93959 h -0.169259 l -0.507778,6.43182 C 73.87759,137.88426 75.023125,133.89739 74.3307,131.8519 h -0.169259 c -0.439226,1.48609 -0.187702,3.36197 -0.168578,4.90849 0.0067,0.57718 8.45e-4,1.31463 0.554313,1.66229 1.0665,0.67026 2.971331,0.0213 4.12922,0.71206 1.775865,1.05939 2.354383,2.85015 4.794244,2.84219 2.130619,-0.007 3.033444,-1.51148 4.426947,-2.765 0.626261,-0.5633 1.431756,-0.35527 1.327834,-1.43599 h -0.169259 l -0.846291,0.84629 -0.16926,-0.16926 c 0.422477,-1.44293 -0.349179,-2.92613 -1.692583,-3.55442 0.367124,0.66282 0.801101,1.24845 0.838169,2.0311 0.26489,5.58773 -9.41939,3.85283 -6.98427,-1.01555 0.252023,-0.50354 0.642675,-0.93769 1.070895,-1.29838 0.655197,-0.55178 1.368621,-0.77503 2.197818,-0.91534 1.215108,-0.20582 2.036341,0.0645 3.215907,0.18262 -1.74607,-2.14501 -5.686398,-3.02464 -7.108851,0 h -0.16925 l 0.507768,-2.20036 m -7.616615,0.50778 c 0,1.58731 -0.359332,2.33204 -1.015546,3.72368 1.524005,-0.27674 2.425976,-2.72726 1.015546,-3.72368 m 30.805001,0 v 0.16926 c 3.4852,1.10475 7.08855,1.31768 10.66328,1.74082 2.56257,0.30348 5.20232,1.02706 7.78588,0.96478 1.59966,-0.0386 3.13754,-0.60578 4.73923,-0.6745 -1.43361,-1.10306 -4.04155,-0.17721 -5.75478,-0.41046 -5.81047,-0.79094 -11.55103,-1.7899 -17.43361,-1.7899 m -19.295442,0.67704 v 0.16925 c -2.212039,0.0953 -3.258224,1.1188 -4.90849,2.36962 0.547552,-2.27602 2.916654,-2.53887 4.90849,-2.53887 m 52.639322,0.33851 -0.70665,3.2159 -1.58189,2.53888 0.0882,8.80143 h 0.16926 c 1.03856,-2.46136 0.436,-5.53424 1.00928,-8.1244 0.51014,-2.30495 2.09744,-3.87432 1.02181,-6.43181 m -35.71349,1.18481 -4.062214,3.89294 v -0.50778 h -0.16926 l -0.3385,1.18481 c 1.69172,-0.088 5.385124,-2.56629 4.569974,-4.56997 m -15.910286,0.84629 c 0.134561,0.47172 0.459703,1.02401 0.398262,1.52332 -0.358996,2.91987 -5.088909,1.05042 -3.204565,-1.16229 0.34157,-0.40114 0.832076,-0.61763 1.282979,-0.86881 -2.704914,-1.10068 -3.846395,3.48977 -1.184642,4.64902 2.601338,1.13285 5.565213,-2.64127 2.707966,-4.14124 m -2.031101,0.33852 c -0.578691,2.52499 2.44985,0.90298 0.677037,0 l -0.338519,1.01554 0.169259,-1.01554 H 82.793613 M 131.54,137.09891 c -0.26133,3.19949 -1.29313,4.71723 1.86184,6.93958 l -1.57072,-3.38516 -0.29112,-3.55442 m 1.18481,4.06219 h 0.16926 c -0.12255,-1.55243 -0.0211,-2.22472 0.84629,-3.55442 -1.87505,0.44702 -1.91549,2.17107 -1.01555,3.55442 z"
       id="path308" /><g
       id="g7546"
       transform="matrix(2.182212,0,0,2.182212,-289.61808,-153.05335)"><path
         style="fill:#577833;stroke-width:0.176389"
         d="m 204.50482,121.32309 c 0,-19.72615 0.002,-19.84375 0.35278,-19.84375 0.35069,0 0.35278,0.1176 0.35278,19.84375 0,19.72616 -0.002,19.84375 -0.35278,19.84375 -0.35069,0 -0.35278,-0.11759 -0.35278,-19.84375 z m 6.87917,5.36972 v -5.4782 l 0.74965,0.0542 0.74966,0.0542 0.0492,2.33715 0.0492,2.33716 h 2.19974 2.19974 v -2.38125 -2.38125 h 0.70556 0.70555 v 5.46805 5.46806 h -0.70555 -0.70556 v -2.36238 c 0,-1.99146 -0.0438,-2.37919 -0.27901,-2.46944 -0.15345,-0.0589 -1.14564,-0.10707 -2.20486,-0.10707 h -1.92585 v 2.46944 2.46945 h -0.79375 -0.79375 z m 11.15177,5.18523 c -1.2344,-0.60843 -1.80119,-1.76511 -1.80119,-3.67578 0,-1.53179 0.25637,-2.25488 1.05541,-2.97677 0.82097,-0.7417 1.29475,-0.8887 2.4931,-0.77355 1.53009,0.14702 2.43958,1.11195 2.63854,2.79938 0.16749,1.42044 -0.0688,3.01682 -0.54569,3.68653 -0.7936,1.11452 -2.59279,1.55501 -3.84017,0.94019 z m 2.44374,-1.63374 c 0.48833,-0.48833 0.5156,-0.59425 0.5156,-2.00272 0,-1.33406 -0.0445,-1.53515 -0.43255,-1.95384 -0.46553,-0.50232 -1.39808,-0.63223 -2.04666,-0.28512 -0.79026,0.42294 -1.14322,2.33963 -0.67708,3.67679 0.38898,1.11584 1.79004,1.41555 2.64069,0.56489 z m 3.6906,-1.95385 v -3.88055 h 0.69384 c 0.61536,0 0.70015,0.0519 0.74965,0.45873 l 0.0558,0.45874 0.50402,-0.39826 c 0.5868,-0.46365 1.9911,-0.65948 2.55706,-0.35659 0.48815,0.26125 0.47694,0.39888 -0.0871,1.06921 -0.32806,0.38988 -0.52085,0.49809 -0.65263,0.36631 -0.3361,-0.3361 -1.3053,-0.20959 -1.82644,0.23841 l -0.4949,0.42544 -0.0599,2.74956 -0.0599,2.74956 h -0.68972 -0.68973 z m 5.64445,0 v -3.88055 h 0.69384 c 0.61536,0 0.70015,0.0519 0.74965,0.45873 l 0.0558,0.45874 0.50892,-0.40211 c 0.71924,-0.56827 2.12068,-0.65602 2.878,-0.1802 1.03155,0.6481 1.18116,1.1808 1.25588,4.47143 l 0.0671,2.95452 h -0.72334 -0.72334 l -10e-4,-2.24896 c -0.001,-2.50971 -0.18199,-3.43294 -0.75068,-3.83126 -0.57598,-0.40344 -1.4442,-0.33642 -2.01663,0.15566 l -0.49483,0.42544 -0.0599,2.74956 -0.0599,2.74956 h -0.68973 -0.68972 z m 8.60285,0.57327 c -0.0476,-3.27894 -0.0514,-3.30778 -0.44487,-3.36366 -0.30846,-0.0438 -0.39687,-0.17152 -0.39687,-0.57326 0,-0.43377 0.0709,-0.5169 0.44097,-0.5169 0.41637,0 0.44097,-0.0536 0.44097,-0.96031 0,-1.17854 0.45811,-1.80287 1.49931,-2.04333 1.2343,-0.28506 1.32291,-0.24999 1.32291,0.52354 0,0.67568 -0.0183,0.69643 -0.66145,0.74966 -0.65509,0.0542 -0.66198,0.0628 -0.71522,0.89259 l -0.0538,0.83785 h 0.71522 c 0.67709,0 0.71521,0.0282 0.71521,0.52916 0,0.49977 -0.0392,0.52917 -0.70555,0.52917 h -0.70556 v 3.35139 3.35139 h -0.70166 -0.70166 z m 5.31551,2.89803 c -1.01902,-0.53647 -1.5842,-1.54039 -1.70343,-3.02579 -0.17442,-2.17292 0.81323,-3.96362 2.34455,-4.25089 0.97676,-0.18325 1.97229,0.0221 2.66375,0.54954 0.75709,0.57746 1.05452,1.23367 1.2193,2.69016 l 0.12387,1.09485 h -2.51135 -2.51135 l 0.11926,0.48507 c 0.36706,1.49291 1.80532,1.97644 3.23087,1.08616 0.33342,-0.20822 0.42928,-0.18686 0.82358,0.18357 0.53679,0.50429 0.3884,0.77466 -0.69588,1.26789 -0.9859,0.44847 -2.15595,0.4181 -3.10317,-0.0806 z m 3.01497,-4.57858 c 0,-0.58972 -0.44928,-1.13205 -1.12167,-1.35396 -0.96565,-0.31869 -1.88623,0.22614 -2.1469,1.27062 l -0.12106,0.48507 h 1.69481 c 1.64606,0 1.69482,-0.0116 1.69482,-0.40173 z m 4.78533,4.81132 c -0.327,-0.0772 -0.76356,-0.30931 -0.97014,-0.51574 -0.36263,-0.36236 -0.3774,-0.54584 -0.42756,-5.30959 l -0.052,-4.93426 h 0.71342 0.71341 v 4.55083 c 0,4.81559 0.0264,4.97417 0.82903,4.97417 0.35572,0 0.40569,0.0869 0.40569,0.70555 0,0.76949 -0.068,0.79918 -1.21189,0.52904 z m 3.85497,-0.15211 c -1.07715,-0.57595 -1.32016,-1.22979 -1.32016,-3.55193 0,-1.61976 0.0639,-2.14555 0.31724,-2.60953 0.68602,-1.25652 2.33532,-1.652 3.52435,-0.8451 0.3452,0.23425 0.67378,0.37978 0.73018,0.32338 0.0564,-0.0564 0.10254,-0.96244 0.10254,-2.01342 v -1.91088 h 0.70555 0.70556 v 5.46805 5.46806 h -0.70556 c -0.635,0 -0.70555,-0.0441 -0.70555,-0.44097 0,-0.24254 -0.0362,-0.44098 -0.0804,-0.44098 -0.0442,0 -0.37277,0.19844 -0.73017,0.44098 -0.7831,0.53142 -1.6853,0.57127 -2.54361,0.11234 z m 2.71983,-1.49046 c 0.48531,-0.48532 0.70964,-1.70329 0.53195,-2.88821 -0.1633,-1.08898 -0.7103,-1.6427 -1.62276,-1.6427 -0.97549,0 -1.41878,0.53033 -1.55689,1.86259 -0.13166,1.27011 0.15071,2.43418 0.68049,2.80526 0.57971,0.40604 1.48741,0.34285 1.96721,-0.13694 z"
         id="path7550" /><path
         style="fill:#183536;stroke-width:0.176389"
         d="m 216.50892,118.72787 c -0.71817,-0.37929 -1.09022,-1.22253 -1.08849,-2.46703 0.003,-1.97413 0.92093,-3.669 1.98764,-3.669 0.65207,0 1.65733,0.89974 1.93069,1.72802 0.47393,1.43603 0.0852,3.5254 -0.79121,4.25276 -0.39765,0.33002 -1.5426,0.41721 -2.03863,0.15525 z m 1.7523,-0.62388 c 1.30659,-1.18954 0.87148,-4.98298 -0.57155,-4.98298 -0.49502,0 -1.30576,0.8979 -1.52557,1.68959 -0.4257,1.53328 -0.0751,3.27288 0.72421,3.59368 0.63477,0.25475 0.80389,0.21777 1.37291,-0.30029 z m 6.1852,0.62388 c -0.71817,-0.37929 -1.09022,-1.22253 -1.08848,-2.46703 0.003,-1.97413 0.92093,-3.669 1.98764,-3.669 0.65206,0 1.65732,0.89974 1.93068,1.72802 0.47393,1.43603 0.0852,3.5254 -0.79121,4.25276 -0.39765,0.33002 -1.5426,0.41721 -2.03863,0.15525 z m 1.7523,-0.62388 c 1.30659,-1.18954 0.87148,-4.98298 -0.57155,-4.98298 -0.49502,0 -1.30576,0.8979 -1.52557,1.68959 -0.4257,1.53328 -0.0751,3.27288 0.72421,3.59368 0.63477,0.25475 0.80389,0.21777 1.37291,-0.30029 z m -14.97746,0.49351 c -0.35662,-0.22039 -0.43745,-2.33591 -0.20251,-5.3001 0.20211,-2.5502 0.20156,-2.55858 -0.19168,-2.87858 -0.32779,-0.26675 -0.3513,-0.34819 -0.13921,-0.48237 0.14033,-0.0888 0.31469,-0.16264 0.38745,-0.16413 0.0728,-10e-4 0.13229,-0.11327 0.13229,-0.24841 0,-0.13514 0.12555,-0.29389 0.27901,-0.35278 0.3974,-0.1525 0.42655,-0.14019 0.42655,0.18006 0,0.23903 0.12557,0.26703 0.74965,0.16711 1.78126,-0.28517 2.18624,-0.29763 2.68993,-0.0828 l 0.52917,0.22575 -0.52917,0.0533 c -0.29104,0.0293 -1.17627,0.18124 -1.96718,0.33763 l -1.43801,0.28434 -0.0984,0.73078 c -0.0541,0.40192 -0.15166,1.19763 -0.21681,1.76824 l -0.11846,1.03746 1.03746,-0.14494 c 1.65306,-0.23094 2.27218,-0.20411 2.27218,0.0985 0,0.17637 -0.20585,0.27934 -0.61736,0.30883 -0.33955,0.0243 -1.07942,0.13559 -1.64416,0.24725 l -1.02681,0.20302 0.043,2.00069 c 0.0236,1.10038 0.007,2.03651 -0.0366,2.0803 -0.0438,0.0438 -0.18794,0.0127 -0.32033,-0.0692 z m 9.91942,-0.22892 c -0.078,-0.12127 -0.15146,-1.05393 -0.16313,-2.07257 l -0.0212,-1.85208 -0.46464,-0.0558 c -0.66108,-0.0794 -0.60568,-0.56155 0.0645,-0.56155 0.47911,0 0.52931,-0.0542 0.5307,-0.57326 0.004,-1.31752 0.22379,-2.42535 0.48221,-2.42535 0.20984,0 0.24654,0.2561 0.19592,1.36702 l -0.0623,1.36701 0.58397,0.0561 c 0.72748,0.0699 0.65645,0.40767 -0.13334,0.63418 l -0.58006,0.16636 0.0743,2.08524 c 0.0566,1.58643 0.0218,2.08523 -0.14536,2.08523 -0.12083,0 -0.28356,-0.0992 -0.36161,-0.22048 z"
         id="path7548" /></g></g></svg>
