<?xml version="1.0" encoding="UTF-8" standalone="no"?>
<!-- Created with Inkscape (http://www.inkscape.org/) -->

<svg
   width="300"
   height="300"
   viewBox="0 0 79.375 79.374998"
   version="1.1"
   id="svg5"
   xml:space="preserve"
   inkscape:version="1.2.2 (b0a8486541, 2022-12-01)"
   sodipodi:docname="favicon_weiß.svg"
   inkscape:export-filename="favicon.png"
   inkscape:export-xdpi="96"
   inkscape:export-ydpi="96"
   xmlns:inkscape="http://www.inkscape.org/namespaces/inkscape"
   xmlns:sodipodi="http://sodipodi.sourceforge.net/DTD/sodipodi-0.dtd"
   xmlns="http://www.w3.org/2000/svg"
   xmlns:svg="http://www.w3.org/2000/svg"><sodipodi:namedview
     id="namedview7"
     pagecolor="#ffffff"
     bordercolor="#000000"
     borderopacity="0.25"
     inkscape:showpageshadow="2"
     inkscape:pageopacity="0.0"
     inkscape:pagecheckerboard="0"
     inkscape:deskcolor="#d1d1d1"
     inkscape:document-units="mm"
     showgrid="false"
     inkscape:zoom="1.3393126"
     inkscape:cx="132.15734"
     inkscape:cy="184.04964"
     inkscape:window-width="1920"
     inkscape:window-height="1001"
     inkscape:window-x="-9"
     inkscape:window-y="1341"
     inkscape:window-maximized="1"
     inkscape:current-layer="layer1"
     showguides="false" /><defs
     id="defs2" /><g
     inkscape:label="Ebene 1"
     inkscape:groupmode="layer"
     id="layer1"><rect
       style="display:none;fill:#587833;fill-opacity:1;fill-rule:evenodd;stroke:#000000;stroke-width:0.209;stroke-opacity:0"
       id="rect569"
       width="79.229927"
       height="78.935936"
       x="0.14699429"
       y="0.14699429"
       sodipodi:insensitive="true" /><circle
       style="display:none;fill:#fffff9;fill-opacity:1;fill-rule:evenodd;stroke:#000000;stroke-width:0.209;stroke-opacity:0"
       id="path2246"
       cx="39.761955"
       cy="39.908951"
       r="39.614964"
       sodipodi:insensitive="true" /><path
       style="display:inline;fill:#ffffff;fill-opacity:1;stroke:none;stroke-width:0.0964754"
       d="m 18.594323,25.711259 3.280182,-1.35066 v 0.09648 c -0.953955,0.451282 -2.264288,1.170587 -2.894277,2.025995 2.18991,-0.506875 4.343923,-2.120235 6.270933,-3.239239 0.806539,-0.46837 1.850402,-0.920447 2.411898,-1.681035 l -3.762557,1.640089 v -0.09648 c 1.246952,-0.472629 2.182084,-1.711143 3.569606,-1.833036 -0.658066,-0.552895 -1.775061,0.178601 -2.411895,0.507319 -1.396104,0.720644 -2.77378,1.536955 -4.148468,2.303949 -0.792548,0.442197 -1.75277,0.897551 -2.315422,1.626618 m 33.863039,-4.437886 v 0.09647 c 2.2504,0.683825 4.124828,1.745669 6.174459,2.935224 1.036438,0.601496 2.103655,1.510029 3.280182,1.792098 -0.74142,1.49996 1.868639,2.238026 2.990752,1.929518 v -0.09648 c -0.916617,-0.137398 -1.851659,-0.613258 -2.508371,-1.25419 1.006046,-0.165906 1.990393,0.395971 2.894269,0.771807 -0.648314,-1.360576 -2.278945,-0.961642 -3.37665,-1.549197 -3.005614,-1.608695 -5.852521,-4.779949 -9.454641,-4.625254 m 0.385906,0.67533 c 0.430376,0.709279 1.607386,1.113742 2.315421,1.516512 1.901254,1.081544 3.959269,2.723099 6.077984,3.307279 -0.631825,-0.877772 -1.779309,-1.414691 -2.701327,-1.943958 -1.843554,-1.058244 -3.683646,-2.16113 -5.692078,-2.879833 m -28.942766,1.254183 -0.09648,0.09648 0.09648,-0.09648 m -0.289431,0.192954 -0.09647,0.09648 0.09647,-0.09648 m -1.35066,0.707483 c 0.07457,0 0.01546,0.04802 -0.03212,0.03216 l 0.03212,-0.03216 m -0.192957,0.06432 v 0.192954 h -0.192949 l 0.192949,-0.192954 m -3.955505,1.929519 c 0.181373,1.140488 -1.898838,1.295933 -2.701328,1.447138 l 1.543617,-1.157708 v -0.09648 c -0.687871,0.05474 -1.495961,0.192603 -2.007767,0.695878 -0.332934,0.327421 -0.579528,0.924915 -0.01252,1.162023 1.031621,0.431461 2.341663,-0.506635 3.274487,-0.796665 0.07043,0.406968 0.164688,0.734515 0.578855,0.868283 l -1.736559,1.157706 c 0.636352,-0.05557 1.42591,-0.270422 1.736559,-0.868281 h 0.192957 l 0.482373,3.376653 h 0.09648 c 0.196807,-0.826507 0.246689,-2.503355 -0.151759,-3.271163 -0.222381,-0.428674 -0.712764,-0.608554 -0.906292,-1.070617 -0.242545,-0.579395 0.397576,-1.1575 -0.389084,-1.44677 m 43.510623,1.157712 0.385899,0.96476 -0.385899,-0.96476 M 5.5700791,34.87646 4.2194187,34.394075 c 0.6421767,-0.722985 1.6148789,-1.17575 2.4118965,-1.711672 1.5623503,-1.05033 3.0972772,-2.125168 4.7273178,-3.071212 0.942182,-0.54673 2.312046,-1.007005 2.99075,-1.873948 -3.146852,0.534901 -6.0691974,3.114727 -8.6828284,4.794083 -0.6841223,0.439637 -1.4161046,0.865388 -2.0241334,1.409321 -0.175052,0.156577 -0.4918796,0.428055 -0.4117373,0.700989 0.1255052,0.427486 1.9330269,0.183499 2.3393952,0.234824 M 38.468351,28.219626 v 0.09647 c 1.566672,0.198166 3.727734,-0.108629 5.113127,0.75396 1.773613,1.104265 1.887264,3.68316 2.726316,5.420494 0.869729,1.800824 2.566254,2.598 3.676214,4.148469 0.917868,1.282256 0.929544,3.214187 0.929735,4.727313 h 0.09648 c 0.53418,-2.168296 0.564286,-5.442396 -1.833047,-6.560356 v -0.09647 l 3.280183,1.057471 6.077984,-0.0049 1.736178,-0.02819 1.833428,1.966369 c -0.298883,-0.717971 -0.734955,-2.208812 -1.451285,-2.587578 -0.478428,-0.252956 -1.043483,0.02389 -1.539466,0.06135 -0.504279,0.03801 -1.03326,-0.07862 -1.543617,-0.07862 -1.755763,-9.1e-5 -3.781467,0.277373 -5.499128,-0.108436 -0.427389,-0.09599 -0.745083,-0.399412 -1.157711,-0.517688 -1.184529,-0.339497 -2.039886,0.291841 -2.894277,-0.917486 1.205953,-0.599882 3.111254,-1.375169 2.604846,-2.990748 l 0.960998,0.117508 0.80451,-0.458936 2.672393,0.332744 5.499127,0.105153 v -0.09647 c -1.836518,-0.669542 -4.145379,-0.658063 -6.077983,-0.658063 -0.646484,0 -1.378745,0.224695 -2.020309,0.04851 -0.515571,-0.1415 -0.46733,-0.992126 -0.971895,-1.297959 -0.726565,-0.44031 -1.659778,-0.514985 -2.410454,-0.917097 -0.541326,-0.289911 -0.903788,-0.828149 -1.447134,-1.127466 -1.093172,-0.602105 -2.368107,-0.485801 -3.569614,-0.485801 v 0.09648 c 2.346194,0.346493 3.941236,1.184239 5.140239,3.28018 0.254984,0.445622 0.923271,1.289592 0.772969,1.831592 -0.247567,0.892495 -1.647529,1.269814 -2.05417,2.123915 -0.762353,-0.835768 -1.376805,-1.957976 -1.543617,-3.087224 0.910151,0.148573 0.843197,-0.899449 0.726946,-1.543614 -0.174425,-0.967559 -0.745857,-1.416174 -1.691706,-1.543619 0.513935,0.850053 2.119095,1.959234 0.868285,2.990754 -0.212438,-1.438264 -0.82583,-3.126688 -2.122465,-3.90928 C 42.60639,27.42436 40.142585,27.82085 38.468346,28.219653 m 22.96127,-0.385907 c -0.605863,0.519872 -0.262898,0.781379 -0.240999,1.447137 0.02879,0.87687 -0.133038,1.850798 -0.337863,2.701327 l 0.910062,-1.717462 0.826504,-0.0191 v -0.09648 C 61.939302,29.943298 61.618522,29.8803 61.429621,29.184417 l 1.640091,0.289428 v -0.09648 c -0.991966,-0.370384 -1.389733,-0.52272 -1.640089,-1.543629 m -30.775814,2.026003 c -1.083998,0.04725 -3.155044,1.078021 -2.291977,2.49554 0.262511,0.43115 0.7473,0.272735 1.089986,0.553389 0.952799,0.780197 1.616744,1.792809 2.842082,2.257245 -0.272445,0.411853 -0.645034,1.010001 -1.116798,1.210573 -0.538053,0.228746 -1.29394,-0.0248 -1.873952,0.109307 -0.558502,0.128988 -0.974799,0.572005 -1.543617,0.6571 -0.650343,0.09734 -1.372749,-0.111528 -2.02599,-0.140182 -1.194275,-0.05229 -2.376395,0.09282 -3.569608,0.09271 -0.88719,-9.4e-5 -1.931543,-0.302835 -2.797801,-0.06571 -0.888932,0.24341 -1.665079,1.551238 -1.929523,2.381124 l 2.218947,-1.755473 2.02599,0.01854 6.077985,0.184268 1.640092,-0.867314 1.64009,-0.377799 c -1.89025,1.926047 -2.947437,5.092284 -1.833041,7.718068 h 0.09647 c -0.07091,-2.045385 0.046,-4.325298 1.22987,-6.077593 0.789947,-1.169191 1.992421,-1.978911 2.743484,-3.184085 0.99978,-1.604108 1.301072,-3.42721 2.084942,-5.113221 0.334575,-0.719808 1.014833,-1.08632 1.37034,-1.736566 -1.021004,0.296043 -2.58854,0.582135 -3.2522,1.450992 -0.458066,0.599698 -0.747204,1.446659 -0.12445,2.02214 0.0041,-1.306959 0.87079,-2.138488 1.929515,-2.797803 l -2.797802,6.174429 c -0.637221,-0.448904 -1.880409,-1.423308 -2.069113,-2.220391 -0.130534,-0.551365 0.397086,-1.184246 0.644265,-1.638644 1.026503,-1.887454 2.160096,-2.489581 4.126176,-3.087227 -1.725856,-1.179054 -4.039541,1.281296 -4.703493,2.604848 -0.239257,0.476973 -0.575283,1.360989 -1.033833,1.660156 -0.337473,0.220161 -0.670702,-0.183496 -0.672826,-0.502931 -0.0027,-0.430957 0.323974,-0.86288 0.62575,-1.136966 0.37674,-0.342105 0.96717,-0.473598 1.250034,-0.888542 m 34.924275,-1.640089 -2.122473,0.578853 v 0.09648 c 0.574617,0.02466 2.263813,0.380884 2.122473,-0.675331 m 0.868286,0.09647 c 0.541326,0.738334 2.017212,1.186659 2.797802,1.704445 2.280594,1.512936 4.657076,3.820736 7.235688,4.75944 l -0.289431,0.385909 c 0.485661,-0.07747 0.680734,-0.407708 0.275052,-0.782615 -0.632396,-0.584449 -1.418676,-1.051781 -2.108093,-1.568796 -2.307507,-1.730674 -4.953842,-4.100149 -7.911018,-4.498378 m -50.070988,0.385908 c -0.322429,0.713732 -0.571812,1.469905 -1.159167,2.015866 -0.588014,0.546434 -1.393585,0.727428 -2.121015,1.018202 -1.509271,0.603261 -3.025484,1.188101 -4.5343675,1.789723 -0.9894974,0.394591 -2.4020354,0.788692 -3.0872261,1.640096 l 2.5083707,-0.860956 6.5603569,-2.226275 0.237721,4.341412 1.498853,3.183704 h 0.09647 l -1.350667,-5.692076 c 1.22949,0.644462 2.708173,0.268396 3.859038,-0.385905 v -0.09647 l -0.86828,0.09647 v -0.09647 l 0.771804,-0.482384 -0.675329,0.09647 v -0.09647 l 0.86828,-0.771807 -3.087227,1.061237 v 0.09647 l 1.35066,0.289426 v 0.09648 c -0.446967,0.03534 -2.037763,0.397097 -2.273169,-0.127153 -0.247553,-0.551553 0.06307,-1.078314 -0.331676,-1.70589 1.41443,-0.42015 1.740614,-1.899032 1.929515,-3.183702 h -0.192949 m 46.887287,0.482377 c -0.20907,1.664598 1.445882,1.902215 2.257143,2.856946 0.56381,0.663465 -0.423728,0.976908 -0.906489,0.998329 -0.256625,0.01128 -0.514984,0.0038 -0.771805,0.0038 -0.4269,-1.88e-4 -0.831812,-0.0431 -1.254193,-0.09647 0.760047,0.884209 2.115721,0.668094 2.990758,0.09647 0,0.327634 0.09108,0.831432 -0.09918,1.117289 -0.86577,1.300974 -3.4217,-0.110272 -4.33871,-0.538432 0.80519,1.725568 2.906342,1.716692 4.341418,0.964757 l -1.325768,3.183706 -0.556766,1.320363 -1.01175,0.416201 v 0.09647 c 1.524324,0 1.547285,-0.505343 2.277122,-1.736564 1.194472,-2.014706 1.187144,-3.534782 1.003061,-5.788554 0.942474,0.501963 2.008243,0.78001 2.990758,1.19891 1.995218,0.850717 4.073593,1.901826 6.270927,2.081269 C 74.421634,34.548101 72.825053,34.294177 71.849008,33.870839 70.17573,33.144956 68.50882,32.411161 66.832262,31.692896 66.031324,31.349734 65.01447,31.136233 64.324277,30.593555 63.828968,30.20418 63.647975,29.649442 63.262661,29.184425 m -46.404914,0.67533 v 0.192949 c 0.718461,0.05076 1.521528,0.12658 1.929522,-0.578855 l -1.929522,0.385906 m 32.415898,0.482377 c 0.514697,0.09176 2.98313,1.006437 2.064193,1.867486 -0.790518,0.740835 -1.807568,-1.40488 -2.064193,-1.867486 m -30.100477,3.569611 h 0.09648 c 0.239557,-0.44977 0.34664,-1.146808 0.784639,-1.446275 0.592078,-0.404713 1.713803,-0.194878 2.399069,-0.193814 1.895559,0.0032 3.709598,-0.05087 5.595597,-0.289431 V 31.78927 c -2.128344,0 -4.343821,-0.319043 -6.463878,-0.06898 -0.573356,0.06773 -1.52384,-0.09146 -1.976788,0.329751 -0.429806,0.399702 -0.430582,1.318536 -0.435114,1.8617 m -1.15771,-0.385851 v 0.09648 h -0.675338 l 0.675338,-0.09648 m 44.764808,0.09648 c 0.422177,0.670024 2.092469,0.680442 2.508371,0 h -2.508371 m -44.957764,4.244938 c 0.0094,-1.059212 0.626606,-1.12192 1.15771,-1.833042 -0.818691,0.0022 -2.172441,1.06046 -1.15771,1.833042 M 61.14018,36.130742 v 0.09647 c 1.220712,0.413213 1.855906,0.364007 1.640091,1.833044 l -1.543609,-1.06123 c 0.222667,0.536405 0.903298,1.962891 1.622241,1.884556 0.93765,-0.102168 0.933207,-2.15421 0.303028,-2.586128 -0.599495,-0.410895 -1.357323,-0.219195 -2.021751,-0.16671 m 7.52512,6.656832 c 1.986439,-0.29753 4.226705,-1.502224 5.98151,-2.447976 1.444241,-0.77847 2.494385,-1.521231 4.148461,-1.507539 -0.720679,-0.598533 -1.605938,-0.502734 -2.411896,-0.143262 -1.759628,0.78464 -3.491949,1.749301 -5.209698,2.628004 -0.782707,0.40047 -1.935307,0.80219 -2.508377,1.470773 M 3.4476092,38.446126 v 0.09648 c 2.3731419,1.565037 5.1630969,3.023362 7.8145508,4.051987 -0.484891,0.208967 -1.140058,0.297628 -1.5128716,0.701865 -0.582571,0.631529 0.2963036,1.263056 0.8375346,1.471935 1.024482,0.395258 2.569929,0.296369 3.183707,-0.726661 -0.946816,0.385806 -1.893822,0.509975 -2.894276,0.2137 -0.28692,-0.085 -0.9424748,-0.302071 -0.8904711,-0.698392 0.059684,-0.455175 0.6449391,-0.477659 0.9869461,-0.479969 0.991579,-0.0068 1.928072,0.0685 2.894277,0.289329 C 13.210002,42.529852 12.358027,42.996802 11.579083,42.539407 9.0665748,41.063998 6.419933,38.957639 3.4476092,38.446126 M 9.0432135,43.462875 7.0172161,41.935659 1.2286637,38.928504 1.7110435,38.735557 c -0.4247075,-0.177806 -1.08861241,-0.0044 -0.6997463,0.561098 0.4582498,0.666753 1.5408399,0.979136 2.2433631,1.301752 1.8333126,0.841754 3.7966832,2.509435 5.7885532,2.864468 m 70.3309235,-4.437896 -8.393406,4.534369 v 0.09647 c 2.324977,-0.343355 4.609618,-1.993282 6.56036,-3.202223 0.439446,-0.272356 1.846642,-0.866452 1.833046,-1.42862 m -27.978011,2.990756 c -0.10776,1.365615 -0.418223,3.360934 0.192949,4.630837 h 0.09647 c 0.0015,-1.333964 0.520679,-3.451803 -0.289425,-4.630837 m 16.304432,1.254183 c -0.532167,0.154366 -0.743347,0.679381 -0.267432,1.080143 0.988777,0.832401 2.705567,0.370375 3.258182,-0.694239 l -1.833041,0.578854 1.833041,-0.868281 c -0.829212,-0.627386 -1.551721,0.564388 -2.315421,0.726465 -0.662891,0.140663 -0.962345,-0.273509 -0.675329,-0.822942 m -38.879789,0.482381 -0.192956,2.508376 c 0.522129,-0.338538 0.446015,-1.981906 0.192956,-2.508376 M 58.535341,48.19019 57.0882,47.61239 52.746787,46.743047 v 0.09648 c 1.63739,1.079854 3.860774,1.349403 5.788554,1.350666 -0.541129,0.561297 -1.444434,0.215046 -2.122465,0.06271 -1.580956,-0.355132 -3.130745,-0.227777 -4.727331,-0.159187 v 0.09648 c 1.856585,0.521738 4.153205,0.573546 6.077984,0.578852 v 0.09648 c -0.454684,0.215044 -1.350082,0.6132 -1.471062,1.156551 -0.140176,0.629119 1.126646,0.986471 1.567543,1.062394 l -1.061238,-0.868268 v -0.192948 c 1.828706,-0.578948 3.646891,-2.215183 5.209698,-3.307194 1.448401,-1.012034 3.022979,-1.687364 4.534375,-2.577837 -0.573358,-0.203365 -1.469817,0.292515 -2.025997,0.482671 -2.243643,0.767176 -3.925019,2.473832 -5.981503,3.56932 m 12.155961,-4.148466 0.192957,1.447141 h 0.09647 L 70.88426,44.041738 H 70.691303 M 11.551579,45.19945 v 0.09647 c 1.076574,0.04622 1.896717,0.205884 2.411897,-0.964754 l -2.411897,0.868281 m 3.087235,-0.868281 v 0.09647 c 3.027123,1.62012 5.955452,4.229213 9.358159,5.016743 L 22.935737,48.768977 V 48.6725 c 1.448584,-0.114326 2.903538,-0.04508 4.34141,-0.297528 0.59642,-0.104776 1.314485,-0.20887 1.736567,-0.667232 -1.536859,0.194205 -3.092629,0.200091 -4.630842,0.442828 -0.97469,0.153781 -1.715628,0.567662 -2.508371,-0.249873 1.70791,-0.134781 5.525076,-0.0096 6.270934,-1.929519 -1.598316,0.581653 -3.076904,0.846771 -4.727325,1.244442 -0.503796,0.12137 -1.360017,0.700126 -1.860532,0.541517 -2.453094,-0.777013 -4.136015,-3.40299 -6.918764,-3.42605 m 52.000503,0 c 0.53997,1.817701 2.63823,1.303487 4.051986,1.640091 -0.603843,-0.691443 -1.600629,-0.517208 -2.411895,-0.751351 -0.619673,-0.178869 -1.083039,-0.601051 -1.640091,-0.88874 M 9.7185394,44.524037 c 0.055796,0.441957 -0.1184624,1.252642 0.099566,1.618091 0.2557526,0.428837 0.8410726,0.272164 1.0564106,0.795639 0.355706,0.864715 0.304281,1.85388 1.256017,2.344072 0.749041,0.385714 2.593467,0.182438 3.109035,0.79921 0.651206,0.779043 -0.386483,1.361469 -0.986659,1.485732 v -0.09649 l 0.578849,-0.192953 v -0.09646 l -3.376652,0.289427 1.54361,0.3859 v 0.09648 l -2.797794,0.192951 0.09647,0.868283 -0.3859056,-0.289429 c 0.042256,0.984445 0.049949,3.671489 1.2541856,3.859041 L 10.683288,55.03992 h 0.09648 l 0.192948,0.3859 c 0.283545,-0.968422 -0.266082,-2.304708 -0.67533,-3.183705 1.395526,0.380794 2.537605,0.414849 3.955513,0.0603 0.497134,-0.124351 1.160984,-0.25267 1.42987,-0.744693 0.259524,-0.474957 -0.0076,-1.046865 -0.07922,-1.534547 1.207585,0.09609 2.502872,0.356284 3.666082,0.695109 0.764291,0.222663 1.604011,0.659991 2.411896,0.647545 0.776635,-0.01208 2.25455,-0.849954 2.604852,-1.535605 -0.824768,0.225557 -1.62427,1.15462 -2.411897,1.222063 -0.941221,0.08065 -2.242484,-0.90244 -3.1837,-1.137841 -1.422827,-0.355706 -2.897175,-0.580396 -4.341418,-0.831916 -0.71045,-0.123679 -1.633919,-0.16275 -2.201097,-0.654391 -0.680638,-0.58995 -0.922019,-1.691998 -1.368509,-2.456952 h -0.09647 v 0.385907 L 9.9114825,44.524053 H 9.7185332 M 30.2679,45.488815 c 0.597378,1.148259 2.056476,1.874143 3.280175,2.122085 1.050722,0.212923 2.039403,-0.04643 3.087226,-0.09233 2.033231,-0.08895 4.046298,-0.08895 6.077984,0 1.443855,0.06328 2.999918,0.582042 4.437887,0.322707 1.182604,-0.213212 2.650479,-1.21289 3.376657,-2.159509 -1.173921,0.251508 -2.089474,1.212602 -3.280183,1.430642 -1.792707,0.328303 -3.976539,-0.236662 -5.788546,-0.360726 -1.563113,-0.107089 -3.260693,-0.107089 -4.823799,0 -0.956071,0.06542 -1.935394,0.280646 -2.894269,0.142982 -1.314778,-0.188812 -2.249726,-1.045997 -3.473132,-1.405851 m 40.616352,0.09648 c 0.324247,0.750871 -0.01715,0.864042 -0.675335,1.157708 v 0.09648 l 1.061234,-0.09648 -0.964753,4.05199 -4.24495,-0.192954 c 0.956465,1.11555 2.898434,0.80577 4.148469,0.482376 -0.979039,1.120962 -2.869194,0.730229 -4.148469,0.675338 v 0.09647 c 1.385882,0.648127 3.278447,0.89636 4.630849,0 -0.116835,0.904944 -0.112588,1.596967 0.3859,2.411902 v -1.254191 l 0.868285,-0.578852 c -0.515181,2.656561 -0.79043,5.326817 -1.157718,8.007497 -0.124735,0.910253 0.197203,2.413437 -1.061228,2.508373 v 0.09649 c 1.534062,0.542666 1.536471,-1.289217 1.69566,-2.31543 0.347411,-2.239974 0.555127,-4.50176 0.807885,-6.753312 0.110861,-0.987527 0.327928,-2.138967 -0.284599,-2.990753 h -0.09647 c -0.217849,0.715273 -0.301585,1.370733 -1.157711,1.543616 0.261354,-0.489131 0.267907,-1.093553 0.344994,-1.640087 0.185329,-1.314972 1.339861,-4.522984 -0.152037,-5.306175 M 9.3326315,45.681781 C 8.7221604,46.610744 9.6136374,47.121 10.490342,47.128917 v -0.09648 C 9.722284,46.710485 9.5688304,46.409965 9.3326355,45.681766 m 60.0080105,0.868281 c -0.02191,1.02583 -0.542204,1.780079 -1.543618,2.080019 -2.966055,0.888542 -6.069205,1.054382 -8.972253,2.261397 v 0.09647 c 2.172536,-0.276011 4.322596,-0.798142 6.463876,-1.242603 0.892403,-0.185239 1.831796,-0.191223 2.701328,-0.483345 1.06751,-0.358795 2.176503,-1.602179 1.350667,-2.711941 m -18.233946,7.042738 -0.482388,0.09647 0.43974,-5.209695 0.814453,-1.543613 c -1.927495,0.894134 -1.640092,3.154854 -1.640092,4.920266 0,0.524157 -0.172112,1.423983 0.07158,1.898744 0.208874,0.40674 0.646294,0.09533 0.796705,-0.162177 M 9.3326396,47.128888 9.7185446,51.566782 H 9.911495 c 0.027079,-1.311207 0.378086,-3.352254 -0.5788554,-4.437894 m 20.0669864,0.289431 0.280843,4.823787 0.201537,1.833047 c 0.661632,-1.367163 0.420537,-3.45017 0.289424,-4.920269 -0.05642,-0.632598 -0.164294,-1.420711 -0.771804,-1.736565 m 16.690321,4.148463 v 0.09647 L 45.1252,51.856196 v 0.09648 c 0.626225,0.0791 1.874137,-0.06118 2.370018,0.361014 0.524639,0.446587 0.331295,2.176203 0.331295,2.822694 0.433466,-0.279879 0.350309,-0.883816 0.402599,-1.350667 0.11789,-1.053802 0.476685,-2.117354 -0.981454,-2.122466 v -0.09647 c 1.235085,-0.517791 2.366167,-2.336839 0.675337,-3.087231 0.134869,0.309012 0.40462,0.613589 0.399115,0.964755 -0.04219,2.713774 -4.751626,0.794479 -2.520137,-0.790712 0.263279,-0.186969 0.567089,-0.262221 0.866838,-0.366993 -0.774896,-0.520296 -1.876362,0.259136 -2.071047,1.06123 -0.26281,1.082844 0.499549,1.932321 1.492183,2.218951 M 35.091695,48.961948 c 0.690097,0.776531 0.390636,1.867673 -0.771797,1.915235 -1.139671,0.0466 -1.920547,-1.202955 -1.929522,-2.204666 -0.827565,0.536505 0.157835,1.682636 0.302068,2.31542 0.300522,1.318539 -0.563137,3.159779 -0.591493,4.534364 l -1.64009,-1.061232 c 0.13661,0.486627 1.758946,2.838514 2.230616,1.822141 0.641175,-1.381439 0.277761,-3.612729 0.277761,-5.102316 1.553156,0.645616 3.080175,0.427674 4.72731,0.387341 2.355652,-0.05778 4.694224,-0.09357 7.042739,-0.194394 v -0.09647 c -2.926118,-0.696652 -6.593254,-0.625546 -9.454635,0.28943 0.674949,-0.594587 1.425045,-1.602565 0.729941,-2.504229 -0.548274,-0.711219 -2.440362,-1.272128 -2.922933,-0.193241 -0.287505,0.642726 0.528974,1.313038 1.131375,1.208072 0.582707,-0.101401 0.736303,-0.621307 0.86866,-1.115452 m -1.15771,-0.482382 c -0.14799,0.49309 -0.136121,0.735821 0.289431,1.061238 -0.764088,0.285471 -1.199385,-0.912665 -0.289431,-1.061238 m 0.289431,0.09647 0.48238,0.09648 c -0.187744,0.388218 -0.504667,0.658834 -0.771811,0.19295 h 0.09648 l 0.28943,0.192957 -0.09648,-0.482384 m 12.445393,0 c 0.123293,0.342779 0.24524,0.925204 -0.289432,0.578858 h 0.385906 l -0.192955,-0.289431 h -0.09647 -0.289431 c -0.352907,1.714762 2.100375,0.191024 0.482382,-0.289427 m 0.771803,0 c 0.422952,1.620119 -1.858702,1.789145 -1.447135,0.09648 -1.154722,0.705145 -0.17182,2.050596 0.964748,1.794936 0.880733,-0.198166 1.412028,-1.404983 0.482387,-1.891413 m -12.734817,0.578858 -0.09647,0.09647 0.09647,-0.09647 m 30.100485,0.868275 c -0.3532,0.943145 -0.116065,1.681958 0.86828,2.025992 l -0.86828,-2.025992 m 2.315415,0.289425 v 0.09648 c 0.84291,0.236853 1.947658,0.347796 2.797801,0.09647 -0.707265,-0.535925 -1.975148,-0.228264 -2.797801,-0.192952 M 11.551583,50.60203 v 0.09648 c 0.932534,0.359081 2.620288,0.595056 3.280177,-0.385908 L 11.551583,50.60203 M 11.26216,62.950944 v -0.09647 C 10.277818,62.650896 10.415198,61.055572 10.254083,60.249615 9.9906047,58.932327 9.6779292,57.619193 9.4566629,56.294097 9.2281501,54.925685 9.2251561,53.794411 8.560837,52.531539 H 9.1396923 C 8.6805911,51.932135 8.7972496,51.761757 9.0432259,51.084397 l -0.2894323,0.09648 0.385906,-0.385905 c -0.8918243,-0.08441 -1.2668157,1.211156 -1.1210856,1.929512 0.53011,2.613054 0.8956963,5.426964 1.6729189,8.007502 0.2826803,0.938514 0.2943568,2.44441 1.5706391,2.218946 m -2.5083784,-11.770055 -0.096466,0.09647 0.096466,-0.09647 m 5.4026484,0.385904 v 0.09647 H 13.86701 l 0.289425,-0.09647 m 1.061235,0.57885 0.0085,2.69708 -0.876773,0.557828 -2.797801,0.604133 v 0.09647 l 1.35066,0.09647 0.0379,2.025994 -1.002672,1.543614 h -0.09647 c 0,-1.051389 0.01715,-2.23081 -0.482381,-3.183701 h -0.09647 c 0,1.800722 0.02817,3.647077 0.48238,5.402651 h 0.09647 c 0,-0.632211 -0.117122,-1.572561 0.246301,-2.122374 0.331206,-0.501 1.116907,-0.718361 1.335614,-1.263257 0.274861,-0.685362 -0.177897,-1.763289 -0.424205,-2.402927 0.776922,0 2.173122,0.09792 2.755937,-0.520391 0.597467,-0.633842 -0.136998,-2.876811 -0.536991,-3.531595 m 30.100477,0.192955 c -0.434331,1.165137 0.129853,3.590537 -0.964755,4.148458 v 0.09648 l 0.989648,-0.23482 0.112493,-1.115842 -0.137386,-2.894275 m 0.578862,0 c -0.207424,0.655649 0.07322,0.85294 0.122423,1.45582 0.08751,1.070589 -0.33197,2.017409 1.228237,1.727877 v -0.09647 C 45.984801,55.029613 46.622799,53.843344 46.37939,52.820991 h -0.09647 l -0.28943,0.482382 -0.09647,-0.964759 m 19.584605,0 c -0.179925,0.695585 -0.619958,1.903463 -0.451315,2.604459 0.204817,0.851787 1.874816,1.069433 2.573787,0.868669 L 65.705274,54.740368 65.48164,52.338604 m -23.926017,0.09647 c 0.621972,0.883135 1.249067,1.525767 1.543609,2.60485 0.442919,-1.057957 -0.44138,-2.491203 -1.543609,-2.60485 m 2.315414,0.09647 c -0.277175,1.163594 -0.20183,2.416813 0.09648,3.569609 h 0.09647 v -3.569601 h -0.19296 M 16.08596,54.364591 v 0.09647 l 6.174458,-0.123682 4.14847,-0.710931 1.929508,-0.468967 1.254192,0.628249 -0.964761,-0.67533 v -0.09648 l 0.964761,-0.09647 c -0.848987,-0.631721 -2.418748,-0.153303 -3.376657,0.02513 -2.116101,0.394296 -4.221595,0.814644 -6.367409,1.01965 -1.219745,0.116544 -2.63003,-0.101018 -3.762562,0.402312 m 18.523376,-1.640099 v 0.771814 h 0.09647 l -0.09647,-0.771814 m 3.762556,0.09648 c -1.010579,1.060078 -0.701284,2.706439 -0.771804,4.051988 -1.217915,-0.684111 -0.771805,-2.701613 -0.771805,-3.955515 h -0.09648 l -0.289424,3.666085 C 34.929922,56.355799 35.58287,54.083309 35.188193,52.917395 h -0.09648 c -0.25035,0.847062 -0.106981,1.9163 -0.09608,2.797805 0.0041,0.328987 5.37e-4,0.749328 0.315957,0.947491 0.607893,0.382045 1.693635,0.01217 2.353618,0.405868 1.012233,0.603847 1.341977,1.624564 2.732685,1.62003 1.214437,-0.0038 1.72904,-0.861532 2.523327,-1.576028 0.356958,-0.321079 0.816086,-0.202507 0.756856,-0.818508 h -0.09649 l -0.482374,0.482384 -0.09647,-0.09648 c 0.240802,-0.822459 -0.199034,-1.667877 -0.964761,-2.025998 0.209253,0.377801 0.456616,0.71161 0.477745,1.157711 0.15099,3.184963 -5.368982,2.196082 -3.980977,-0.578852 0.143648,-0.287015 0.366322,-0.534481 0.610404,-0.740067 0.373453,-0.314513 0.780101,-0.441764 1.252736,-0.521741 0.692602,-0.117313 1.160699,0.03675 1.833041,0.104093 -0.995248,-1.222643 -3.241202,-1.724026 -4.051994,0 h -0.09647 l 0.289425,-1.254188 m -4.341412,0.289431 c 0,0.904753 -0.204817,1.329245 -0.578856,2.122469 0.868674,-0.157741 1.382787,-1.55452 0.578856,-2.122469 m 17.558608,0 v 0.09647 c 1.986542,0.629698 4.04042,0.751069 6.077985,0.992254 1.46065,0.17298 2.965287,0.585417 4.437894,0.549916 0.911789,-0.02199 1.788371,-0.345288 2.701326,-0.384456 -0.817154,-0.628737 -2.303655,-0.101007 -3.280182,-0.233961 -3.311922,-0.450826 -6.583999,-1.020226 -9.937023,-1.020226 m -10.99825,0.385915 v 0.09647 c -1.260848,0.0543 -1.857165,0.637707 -2.797809,1.350659 0.312099,-1.297308 1.662473,-1.447133 2.797809,-1.447133 m 30.004001,0.192949 -0.402789,1.833038 -0.901664,1.447141 0.05028,5.01675 h 0.09647 c 0.591976,-1.402955 0.248512,-3.154475 0.575281,-4.630845 0.29078,-1.313809 1.195527,-2.208334 0.582429,-3.666084 m -20.356418,0.675335 -2.31542,2.21894 v -0.289427 h -0.09648 l -0.192943,0.675331 c 0.964271,-0.05016 3.069472,-1.462764 2.604845,-2.604844 m -9.068735,0.482377 c 0.07671,0.268878 0.262027,0.583674 0.227009,0.868282 -0.204621,1.664301 -2.90064,0.598732 -1.826576,-0.662501 0.194692,-0.228645 0.474275,-0.352046 0.731288,-0.495213 -1.541786,-0.627374 -2.192413,1.989142 -0.675242,2.649907 1.482746,0.645714 3.172133,-1.505507 1.543521,-2.360475 m -1.15771,0.192949 c -0.329853,1.439229 1.396396,0.5147 0.385905,0 l -0.192956,0.578859 0.09648,-0.578859 h -0.28943 m 27.785061,0.868287 c -0.148961,1.82368 -0.737079,2.688784 1.061236,3.955506 l -0.895282,-1.92952 -0.165934,-2.025987 m 0.67533,2.315417 h 0.09648 c -0.06984,-0.884876 -0.01205,-1.268075 0.48238,-2.025994 -1.068761,0.254795 -1.091817,1.237498 -0.578856,2.025994 z"
       id="path308" /><path
       style="fill:#ffffff;fill-rule:evenodd;stroke:#000000;stroke-width:0.209;stroke-opacity:0;fill-opacity:1"
       d="m 18.601457,25.70064 c 0,0 -0.701942,0.813615 0.392449,0.775327 1.094391,-0.03829 8.316597,-4.06669 8.663929,-4.902857 0.347329,-0.836167 -1.016265,-0.561733 -1.440782,-0.364483 -0.424515,0.19725 -7.239862,3.577479 -7.615596,4.492013 z"
       id="path493" /><path
       style="fill:#ffffff;fill-opacity:1;fill-rule:evenodd;stroke:#000000;stroke-width:0.209;stroke-opacity:0"
       d="m 16.016791,26.429989 c 0,0 2.027803,-0.388424 2.090636,-0.331303 0.06283,0.05712 0.15994,0.816834 0.15994,0.816834 l -2.90747,0.851106 -0.02856,-0.508378 z"
       id="path1379" /><path
       style="fill:#ffffff;fill-opacity:1;fill-rule:evenodd;stroke:#000000;stroke-width:0.209;stroke-opacity:0"
       d="m 14.322751,27.74021 c 0,0 0.868491,1.729621 2.031386,0.971532 1.162896,-0.75809 -0.360644,2.414111 -0.684489,2.539235 -0.323844,0.125121 -10.180675,3.915939 -10.180675,3.915939 0,0 -2.0986051,-0.158922 -2.220854,-0.452321 C 3.1458701,34.421199 3.4270426,34.1441 3.4270426,34.1441 Z"
       id="path1381" /><path
       style="fill:#ffffff;fill-opacity:1;fill-rule:evenodd;stroke:#000000;stroke-width:0.209;stroke-opacity:0"
       d="M 1.3611757,38.662165 3.4626399,38.471123 11.25955,42.57853 c 0,0 -1.8984822,-0.632828 -2.2447462,0.847752 -0.3462639,1.480576 -7.6536281,-4.764117 -7.6536281,-4.764117 z"
       id="path1383" /><path
       style="fill:#ffffff;fill-opacity:1;fill-rule:evenodd;stroke:#000000;stroke-width:0.209;stroke-opacity:0"
       d="m 2.1095252,38.799852 -0.972886,-0.01926 0.4430966,0.760971 1.387085,0.635746 z"
       id="path1385" /><path
       style="fill:#ffffff;fill-opacity:1;fill-rule:evenodd;stroke:#000000;stroke-width:0.209;stroke-opacity:0"
       d="m 13.80645,43.293821 c 0,0 0.42014,0.290867 -0.07756,0.801499 -0.497705,0.51063 -2.456416,0.519637 -2.456416,0.519637 l -1.3549314,-0.642546 0.027937,-0.656514 1.0057224,-0.544766 z"
       id="path1387" /><path
       style="fill:#ffffff;fill-opacity:1;fill-rule:evenodd;stroke:#000000;stroke-width:0.209;stroke-opacity:0"
       d="m 52.443599,21.285932 c 0,0 -0.671423,0.399224 0.961768,1.233967 1.633194,0.834742 7.803028,4.228153 7.803028,4.228153 0,0 -0.09073,-1.034356 0.707716,-0.725865 0.798449,0.308492 -6.133542,-3.792634 -6.133542,-3.792634 z"
       id="path1400" /><path
       style="fill:#ffffff;fill-opacity:1;fill-rule:evenodd;stroke:#000000;stroke-width:0.209;stroke-opacity:0"
       d="m 63.271685,29.200909 c 0,0 -0.25631,-0.146463 0.201385,-0.366157 0.457695,-0.219694 2.526472,-1.006928 3.020782,-0.549233 0.494311,0.457695 9.539015,5.958972 9.539015,5.958972 l 0.394608,0.279122 0.19241,0.288613 -0.371076,0.316101 c 0,0 -0.618455,0.27487 -1.140708,0.219895 -0.522251,-0.05497 -9.24936,-3.696994 -9.24936,-3.696994 l -1.855369,-1.071991 z"
       id="path1402" /><path
       style="fill:#ffffff;fill-opacity:1;fill-rule:evenodd;stroke:#000000;stroke-width:0.209;stroke-opacity:0"
       d="m 68.291336,29.232375 c 0,0 -0.151178,0.247383 -0.12369,0.316101 0.02749,0.06872 2.460083,1.443064 2.460083,1.443064 z"
       id="path1404" /><path
       style="fill:#ffffff;fill-opacity:1;fill-rule:evenodd;stroke:#000000;stroke-width:0.209;stroke-opacity:0"
       d="m 66.497228,44.132589 c 0,0 0.906076,0.795581 1.502762,0.994477 0.596683,0.198895 2.651932,0.817678 2.651932,0.817678 0,0 -0.994473,1.082874 -1.171271,2.033149 -0.176794,0.950277 -11.270715,3.425415 -11.712704,3.093923 -0.441989,-0.331493 -1.348065,-0.795581 -1.348065,-0.795581 l 5.038672,-3.756906 z"
       id="path1406" /><path
       style="fill:#ffffff;fill-opacity:1;fill-rule:evenodd;stroke:#000000;stroke-width:0.209;stroke-opacity:0"
       d="m 68.702165,42.783162 c 0,0 1.838648,-0.286671 2.273597,0.751273 0.434948,1.037947 6.128826,-2.827168 6.128826,-2.827168 l 2.266204,-1.666597 c 0,0 0.07439,0.114067 -0.580255,-0.213257 -0.654645,-0.327321 -2.92408,0.32494 -2.92408,0.32494 l -3.999433,2.245297 z"
       id="path1408" /><path
       style="fill:#ffffff;fill-opacity:1;fill-rule:evenodd;stroke:#000000;stroke-width:0.209;stroke-opacity:0"
       d="m 10.781115,46.02205 c 0,0 3.497989,-0.417671 3.863451,-1.618474 0.365461,-1.200801 4.21586,1.801204 4.21586,1.801204 l 5.128843,3.281979 c 0,0 0.3866,0.172905 0.287912,0.344905 -0.09869,0.171998 -2.075014,1.324263 -2.075014,1.324263 l -1.799107,-0.128505 -2.006696,-0.909439 -4.54159,-0.876557 -2.06922,-0.629764 z"
       id="path1410" /><path
       style="fill:#ffffff;fill-opacity:1;fill-rule:evenodd;stroke:#000000;stroke-width:0.209;stroke-opacity:0"
       d="m 65.279759,27.439964 c 0,0 0.378245,0.462301 -0.378246,0.580739 -0.756491,0.118441 -2.712667,-1.333408 -2.712667,-1.333408 l 0.168108,-0.255985 2.074619,0.424094 z"
       id="path1466" /><path
       style="fill:#ffffff;fill-opacity:1;fill-rule:evenodd;stroke:#000000;stroke-width:0.209;stroke-opacity:0"
       d="m 67.682638,43.282176 c 0,0 2.706873,-0.432324 3.003447,0.08136 0.296574,0.513683 -1.288158,1.240703 -1.288158,1.240703 l -1.66783,-0.332211 -0.32543,-0.58306 z"
       id="path1468" /><path
       style="fill:#ffffff;fill-opacity:1;fill-rule:evenodd;stroke:#000000;stroke-width:0.209;stroke-opacity:0"
       d="m 10.093777,44.483631 c 0,0 1.065172,0.77098 1.481097,0.801415 0.415924,0.03043 1.988322,-0.568093 1.988322,-0.568093 l 0.397919,-0.380619 c 0,0 0.0863,-0.238992 0.01,-0.733573 -0.07634,-0.49458 -3.877296,0.88087 -3.877296,0.88087 z"
       id="path1470" /></g></svg>
